<?xml version="1.0" encoding="UTF-8"?>
<svg width="315px" height="264px" viewBox="0 0 315 264" version="1.1" xmlns="http://www.w3.org/2000/svg" xmlns:xlink="http://www.w3.org/1999/xlink">
    <!-- Generator: Sketch 52.5 (67469) - http://www.bohemiancoding.com/sketch -->
    <title>Group</title>
    <desc>Created with Sketch.</desc>
    <g id="Page-1" stroke="none" stroke-width="1" fill="none" fill-rule="evenodd">
        <g id="Desktop-HD-Copy-13" transform="translate(-913.000000, -252.000000)">
            <g id="Group" transform="translate(915.000000, 254.000000)">
                <path d="M308.67414,249.92334 L259.569133,192.24041 L266.550729,168.862196 C267.030573,167.327238 266.741574,165.655641 265.774068,164.369911 C265.282983,163.704524 264.638446,163.167055 263.89505,162.803029 C262.308324,161.569526 259.093115,159.369224 256.378978,159.369224 C255.565263,159.349706 254.764669,159.57633 254.0824,160.019313 L238.849826,169.91234 L177.117818,72.8406614 C173.611551,67.3348869 167.528421,64 160.991667,64 C154.454913,64 148.371783,67.3348869 144.865516,72.8406614 L84.2609184,168.245444 L72.9450538,128.131596 L72.8782443,127.889896 L72.7279228,127.698203 C72.5274942,127.439834 70.6150713,125.197859 64.9613146,125.197859 C59.5079865,125.197859 58.004772,127.564851 57.8544506,127.831555 L57.7792898,127.964906 L35.9826797,202.883539 L11.8393848,210.167874 C9.69359452,210.800965 8.18520044,212.721155 8.08134853,214.951865 C8.05604969,215.259724 8.05604969,215.569134 8.08134853,215.876992 C7.87256874,218.544026 7.8057592,224.486509 11.2715037,225.945043 L49.0940506,242.363967 C54.1168231,244.474629 59.5114507,245.562729 64.9613146,245.564407 C70.8222933,245.57172 76.6159846,244.318079 81.9476384,241.888902 L93.088128,237.013232 L198.50522,237.013232 L197.210785,244.514263 C196.676309,247.848054 201.043982,250.806795 203.549339,252.206987 C204.503892,253.069767 205.743957,253.550555 207.031786,253.557173 C208.18411,253.559189 209.301917,253.164766 210.196888,252.440352 L227.542313,238.705131 L300.398109,261.92499 L300.623591,262 L300.865775,262 C301.174769,262 303.997472,261.624948 307.020604,257.065988 C309.926818,252.657049 308.81611,250.181709 308.67414,249.92334 Z" id="Path" fill="#D0DADB"></path>
                <path d="M135.30187,62.097382 L49.6823408,197.270991 C46.3034966,202.637633 46.1030639,209.418642 49.1590174,214.975989 C52.214971,220.533336 58.0447836,223.98953 64.3804711,224 L235.619529,224 C241.955216,223.98953 247.785029,220.533336 250.840983,214.975989 C253.896936,209.418642 253.696503,202.637633 250.317659,197.270991 L164.69813,62.097382 C161.507317,57.0554851 155.96109,54 150,54 C144.03891,54 138.492683,57.0554851 135.30187,62.097382 Z" id="Path" stroke="#272525" stroke-width="4" fill="#E8B231"></path>
                <path d="M64.3365166,208.999943 C63.4854272,209.005908 62.6993879,208.544517 62.28842,207.797748 C61.8774521,207.050979 61.9075252,206.138704 62.3667781,205.420734 L148.033708,70.0881741 C148.443716,69.3934409 149.198272,68.9769846 150.003447,69.0010312 C150.806549,68.9764329 151.558892,69.393435 151.964839,70.0881741 L237.640115,205.420734 C238.093358,206.139661 238.120342,207.048722 237.710543,207.793367 C237.300744,208.538012 236.519066,209.000305 235.670377,208.999943 L64.3365166,208.999943 Z" id="Path" stroke="#272525" stroke-width="7" fill="#FBDA4C"></path>
                <path d="M98.9956238,135.999983 C98.4219017,136.00141 97.8599696,135.837145 97.3773401,135.526924 C95.9863422,134.627623 95.5822657,132.773973 96.4727611,131.377282 L139.477612,64.3771648 C140.057252,63.4757901 141.073716,62.9521341 142.144112,63.0034531 C143.214508,63.054772 144.176218,63.6732693 144.666975,64.625963 C145.157731,65.5786567 145.102977,66.72081 144.523338,67.6221847 L101.526785,134.622302 C100.973836,135.48383 100.019294,136.003376 98.9956238,135.999983 Z" id="Path" fill="#FBDA4C"></path>
                <path d="M2.5147485,214.434881 L40.2586349,230.890229 C50.4750942,235.193642 62.0217486,235.024057 72.107905,230.422463 L106.641852,215.253472 C108.152505,214.561855 109.085882,213.013565 108.993751,211.352132 C108.90162,209.690698 107.802801,208.255517 106.224977,207.7358 L55.424557,191.029863 C55.279942,190.990046 55.1272842,190.990046 54.9826692,191.029863 L2.90661125,206.808621 C1.25779492,207.289899 0.0936633881,208.763945 0.00537231606,210.482227 C-0.082918756,212.200509 0.923976577,213.786524 2.5147485,214.434881 Z" id="Path" fill="#D5692E"></path>
                <path d="M2.51145063,214.419667 L40.2612442,230.887811 C50.4793025,235.19457 62.027764,235.024854 72.1154989,230.419681 L106.654851,215.238894 C109.990375,213.709112 108.789586,205.023629 108.789586,205.023629 L55.421201,191.029886 C55.2765634,190.990038 55.1238817,190.990038 54.9792441,191.029886 L0.184922603,204.405029 C0.184922603,204.405029 -0.974172007,212.948401 2.51145063,214.419667 Z" id="Path" stroke="#272525" stroke-width="3" stroke-linecap="round"></path>
                <path d="M2.52647351,209.43989 L40.2662039,225.887123 C50.4807442,230.194697 62.0278351,230.025085 72.1119672,225.41935 L106.642112,210.258493 C108.152598,209.566865 109.085873,208.018553 108.993752,206.357096 C108.901631,204.695638 107.802933,203.260437 106.225282,202.740712 L55.4304561,186.034533 C55.2867609,185.988489 55.1323123,185.988489 54.988617,186.034533 L2.91829311,201.805166 C1.26368757,202.282629 0.0937854296,203.759547 0.00536039439,205.482536 C-0.0830646408,207.205525 0.929473552,208.794891 2.52647351,209.43989 Z" id="Path" fill="#E39E37"></path>
                <path d="M74.2524788,216.712543 C69.0183573,214.353849 63.9446364,211.640083 58.8540311,209.053129 C50.3387346,204.656997 41.7924836,200.305954 33.2152781,196 L5.72769826,204.318833 C5.31742353,204.44496 5.02825068,204.812636 5.00194758,205.241608 C4.97564449,205.67058 5.217725,206.070923 5.60950843,206.246368 L39.9774253,221.218577 C44.3442491,223.057952 49.034478,224.003652 53.771868,223.999976 C58.8852772,224.005933 63.9394765,222.904258 68.5878086,220.77051 L76,217.515682 L74.2524788,216.712543 Z" id="Path" fill="#F4D83B"></path>
                <path d="M2.52647351,209.43989 L40.2662039,225.887123 C50.4807442,230.194697 62.0278351,230.025085 72.1119672,225.41935 L106.642112,210.258493 C108.152598,209.566865 109.085873,208.018553 108.993752,206.357096 C108.901631,204.695638 107.802933,203.260437 106.225282,202.740712 L55.4304561,186.034533 C55.2867609,185.988489 55.1323123,185.988489 54.988617,186.034533 L2.91829311,201.805166 C1.26368757,202.282629 0.0937854296,203.759547 0.00536039439,205.482536 C-0.0830646408,207.205525 0.929473552,208.794891 2.52647351,209.43989 Z" id="Path" stroke="#272525" stroke-width="3" stroke-linecap="round"></path>
                <path d="M24,205.533898 C24,205.533898 26.7994462,218.779596 54.2041139,218.997013 C81.6087816,219.21443 87,207.490649 87,207.490649 L61.9711234,118.015286 C61.9711234,118.015286 60.4094146,116 55.2258703,116 C50.3746044,116 49.2365506,118.015286 49.2365506,118.015286 L24,205.533898 Z" id="Path" fill="#FFFFFF"></path>
                <path d="M87,207.987566 L61.8546883,118.026341 C61.8546883,118.026341 60.2857143,116.000112 55.078056,116.000112 C54.38256,115.997293 53.6878624,116.047885 53,116.151448 L76.5596465,216 C84.880216,212.594926 87,207.987566 87,207.987566 Z" id="Path" fill="#E7E7E6"></path>
                <path d="M29,193 C29,193 51.7279813,206.5 83,193" id="Path" stroke="#272525" stroke-width="3" stroke-linecap="round"></path>
                <path d="M33,173.180754 C40.4716981,176.056393 56.5773585,180.189096 77,173" id="Path" stroke="#272525" stroke-width="3" stroke-linecap="round"></path>
                <path d="M39,153.266826 C49.8202993,156.999494 61.2166103,156.907347 72,153" id="Path" stroke="#272525" stroke-width="3" stroke-linecap="round"></path>
                <path d="M45,134.24189 C52.2925464,135.328337 59.7386278,135.246467 67,134" id="Path" stroke="#272525" stroke-width="3" stroke-linecap="round"></path>
                <path d="M24,205.533898 C24,205.533898 26.7994462,218.779596 54.2041139,218.997013 C81.6087816,219.21443 87,207.490649 87,207.490649 L61.9711234,118.015286 C61.9711234,118.015286 60.4094146,116 55.2258703,116 C50.3746044,116 49.2365506,118.015286 49.2365506,118.015286 L24,205.533898 Z" id="Path" stroke="#272525" stroke-width="3" stroke-linecap="round"></path>
                <path d="M82.2034739,194.190608 C73.652399,197.869516 64.4538864,199.799558 55.1480562,199.867403 C41.1943755,199.867403 31.7568238,195.251381 29.4574028,194 L26,205.941989 C26.6203474,207.71547 31.1695616,217.809392 54.7427626,218 L55.4789082,218 C78.0430108,218 84.7675765,209.596685 86,207.707182 L82.2034739,194.190608 Z" id="Path" fill="#D5692E"></path>
                <path d="M65,133.194813 L60.9676259,119.367863 C60.5148381,119.021777 58.8916367,118 55.2180755,118 C51.8008094,118 50.5791367,118.988816 50.2715827,119.293702 L46,133.417296 C52.3090496,134.262799 58.714091,134.187798 65,133.194813 Z" id="Path" fill="#D5692E"></path>
                <path d="M76,172.337708 L71.2387635,155 C65.8931808,156.389433 60.401467,157.099331 54.8871263,157.113728 C49.8297785,157.120515 44.7901736,156.499866 39.8779744,155.265286 L35,172.517418 C42.7880822,175.409888 57.5220663,178.721682 76,172.337708 Z" id="Path" fill="#D5692E"></path>
                <path d="M86,206.991422 L82.2891791,193 C79.2658362,194.343502 76.1627999,195.475419 73,196.38848 L76.9452736,214 C82.9116915,211.375 85.3208955,208.098039 86,206.991422 Z" id="Path" fill="#AA402D"></path>
                <path d="M60.840708,119.372881 C60.3716814,119.025601 58.6902655,118.000297 54.8849558,118.000297 C54.2544659,117.996181 53.6244891,118.03487 53,118.116057 L57.0353982,134 C59.7037865,133.895676 62.3632694,133.644426 65,133.247559 L60.840708,119.372881 Z" id="Path" fill="#AA402D"></path>
                <path d="M71.3173385,156 C68.5792294,156.677803 65.8015397,157.188503 63,157.529208 L67.1586692,175 C70.1541401,174.416634 73.1076088,173.639395 76,172.673302 L71.3173385,156 Z" id="Path" fill="#AA402D"></path>
                <path d="M50.44,135 L52,120 L48,134.788851 C48.8,134.890203 49.624,134.890203 50.44,135 Z" id="Path" fill="#E8AE3A"></path>
                <path d="M41.809993,155 L36,175.152672 C38.9809993,176.563359 42.3757917,176.58855 45.6523575,177 L48,155.856489 C45.914145,155.705344 43.8705137,155.319084 41.809993,155 Z" id="Path" fill="#E8AE3A"></path>
                <path d="M31.4953076,193 L28,205.301925 C33.0052138,213.61267 42.1397289,214 42.1397289,214 L44,196.915397 C39.8039625,195.904972 35.0072993,195.702887 31.4953076,193 Z" id="Path" fill="#E8AE3A"></path>
                <path d="M24,205.533898 C24,205.533898 26.7994462,218.779596 54.2041139,218.997013 C81.6087816,219.21443 87,207.490649 87,207.490649 L61.9711234,118.015286 C61.9711234,118.015286 60.4094146,116 55.2258703,116 C50.3746044,116 49.2365506,118.015286 49.2365506,118.015286 L24,205.533898 Z" id="Path" stroke="#272525" stroke-width="3" stroke-linecap="round"></path>
                <path d="M29,193 C29,193 51.7279813,206.5 83,193" id="Path" stroke="#272525" stroke-width="3" stroke-linecap="round"></path>
                <path d="M33,173.180754 C40.4716981,176.056393 56.5773585,180.189096 77,173" id="Path" stroke="#272525" stroke-width="3" stroke-linecap="round"></path>
                <path d="M39,153.266826 C49.8202993,156.999494 61.2166103,156.907347 72,153" id="Path" stroke="#272525" stroke-width="3" stroke-linecap="round"></path>
                <path d="M45,134.24189 C52.2925464,135.328337 59.7386278,135.246467 67,134" id="Path" stroke="#272525" stroke-width="3" stroke-linecap="round"></path>
                <path d="M79,198 L82,207" id="Path" stroke="#702B1F" stroke-width="3" stroke-linecap="round"></path>
                <path d="M69,159 L72,170" id="Path" stroke="#702B1F" stroke-width="3" stroke-linecap="round"></path>
                <path d="M59,122 L61,130" id="Path" stroke="#702B1F" stroke-width="3" stroke-linecap="round"></path>
                <path d="M253.658744,147.684147 L218.828905,170.187252 C209.525257,176.359238 203.244676,186.111841 201.506573,197.08569 L195.05068,234.320682 C194.786943,235.967808 195.568714,237.606747 197.019361,238.447911 C198.470008,239.289075 200.292007,239.159944 201.607578,238.122729 L243.878108,204.823482 C243.996219,204.727652 244.083909,204.599971 244.13062,204.455811 L259.828457,152.204823 C260.321691,150.570005 259.728194,148.803752 258.345095,147.790328 C256.961997,146.776903 255.086973,146.73442 253.658744,147.684147 Z" id="Path" fill="#D5692E"></path>
                <path d="M253.358224,147.465492 L218.694742,169.845628 C209.435531,175.983888 203.184948,185.683197 201.455146,196.597079 L195.030088,233.6286 C194.452084,237.251971 202.393356,241 202.393356,241 L243.624303,204.292588 C243.74185,204.197282 243.829122,204.070298 243.875609,203.926927 L263,151.022379 C263,151.022379 256.49955,145.37125 253.358224,147.465492 Z" id="Path" stroke="#272525" stroke-width="3" stroke-linecap="round"></path>
                <path d="M258.65435,150.687554 L223.822798,173.179822 C214.523943,179.351756 208.245498,189.098222 206.5038,200.065308 L200.049149,237.332482 C199.78976,238.977347 200.573002,240.611813 202.022338,241.450128 C203.471675,242.288443 205.290641,242.159126 206.604785,241.124346 L248.867181,207.841135 C248.988825,207.748638 249.077325,207.619816 249.119644,207.473641 L264.814461,155.247813 C265.329936,153.610151 264.747645,151.827942 263.361947,150.802125 C261.976249,149.776309 260.089044,149.730379 258.65435,150.687554 Z" id="Path" fill="#E39E37"></path>
                <path d="M212.644946,205.983923 C217.413627,202.960679 222.348465,200.228932 227.274994,197.463871 C235.499723,192.83878 243.702298,188.166493 251.882719,183.447012 L259.957908,156.296113 C260.078574,155.891047 259.934226,155.453538 259.596427,155.200487 C259.258627,154.947437 258.79919,154.932643 258.445887,155.163438 L227.499305,175.326728 C223.617528,177.918694 220.295064,181.266427 217.729324,185.171011 C214.954304,189.380749 213.120643,194.142525 212.354173,199.129571 L211,207 L212.644946,205.983923 Z" id="Path" fill="#F4D83B"></path>
                <path d="M258.65435,150.687554 L223.822798,173.179822 C214.523943,179.351756 208.245498,189.098222 206.5038,200.065308 L200.049149,237.332482 C199.78976,238.977347 200.573002,240.611813 202.022338,241.450128 C203.471675,242.288443 205.290641,242.159126 206.604785,241.124346 L248.867181,207.841135 C248.988825,207.748638 249.077325,207.619816 249.119644,207.473641 L264.814461,155.247813 C265.329936,153.610151 264.747645,151.827942 263.361947,150.802125 C261.976249,149.776309 260.089044,149.730379 258.65435,150.687554 Z" id="Path" stroke="#272525" stroke-width="3" stroke-linecap="round"></path>
                <path d="M248.941404,170.446031 C248.941404,170.446031 236.375874,165.540314 221.043928,188.267648 C205.711982,210.994981 212.494702,221.91041 212.494702,221.91041 L300.745049,250 C300.745049,250 303.244823,249.792482 306.144561,245.476115 C308.827651,241.42537 307.811076,239.383397 307.811076,239.383397 L248.941404,170.446031 Z" id="Path" fill="#FFFFFF"></path>
                <path d="M212.488058,221.987886 L300.586066,250 C300.586066,250 303.08176,249.793055 305.976765,245.488593 C306.357584,244.910257 306.699414,244.307411 307,243.68403 L211.606246,209 C209.842622,217.716535 212.488058,221.987886 212.488058,221.987886 Z" id="Path" fill="#E7E7E6"></path>
                <path d="M258,182 C258,182 234.765554,193.489541 229,227" id="Path" stroke="#272525" stroke-width="3" stroke-linecap="round"></path>
                <path d="M270,197 C263.495172,201.634394 251.155862,212.865493 246,234" id="Path" stroke="#272525" stroke-width="3" stroke-linecap="round"></path>
                <path d="M284,211 C275.170822,218.525856 268.608336,228.196888 265,239" id="Path" stroke="#272525" stroke-width="3" stroke-linecap="round"></path>
                <path d="M297,227 C291.939571,232.570402 287.878043,239.001154 285,246" id="Path" stroke="#272525" stroke-width="3" stroke-linecap="round"></path>
                <path d="M248.941404,170.446031 C248.941404,170.446031 236.375874,165.540314 221.043928,188.267648 C205.711982,210.994981 212.494702,221.91041 212.494702,221.91041 L300.745049,250 C300.745049,250 303.244823,249.792482 306.144561,245.476115 C308.827651,241.42537 307.811076,239.383397 307.811076,239.383397 L248.941404,170.446031 Z" id="Path" stroke="#272525" stroke-width="3" stroke-linecap="round"></path>
                <path d="M226.558613,225 C228.223508,215.783458 231.711191,206.992036 236.817227,199.141055 C244.573739,187.387748 253.689727,182.015761 256,180.789546 L247.901534,171.255103 C246.058319,170.787974 235.057416,169.019555 221.804622,188.772453 L221.387605,189.389731 C208.877101,208.383543 212.171533,218.702096 213.047269,220.787494 L226.558613,225 Z" id="Path" fill="#D5692E"></path>
                <path d="M287,244.573155 L301.044469,249 C301.594072,248.824927 303.352801,248.074614 305.356738,245.081701 C307.200022,242.322218 307.047824,240.754898 306.946359,240.329721 L297.171882,229 C293.011829,233.661316 289.583183,238.910575 287,244.573155 Z" id="Path" fill="#D5692E"></path>
                <path d="M248,232.597097 L264.844806,238 C266.668224,232.74557 269.13077,227.736853 272.176659,223.087313 C274.969518,218.828212 278.268165,214.925537 282,211.46518 L270.591167,198 C263.938811,202.990532 253.033309,213.585946 248,232.597097 Z" id="Path" fill="#D5692E"></path>
                <path d="M214.073786,221.663158 L227.503728,226 C228.121545,222.64739 228.955416,219.339273 230,216.096842 L213.507965,210 C212.293113,216.602105 213.574532,220.467368 214.073786,221.663158 Z" id="Path" fill="#AA402D"></path>
                <path d="M300.859903,249 C301.402284,248.826707 303.137901,248.084021 305.115503,245.12153 C305.442185,244.628506 305.737586,244.115892 306,243.586647 L290.5213,238 C289.221456,240.132488 288.045777,242.336624 287,244.60165 L300.859903,249 Z" id="Path" fill="#AA402D"></path>
                <path d="M264.72213,238 C265.653848,235.344091 266.748549,232.748113 268,230.226841 L250.936772,224 C249.77237,226.821427 248.791407,229.715011 248,232.662708 L264.72213,238 Z" id="Path" fill="#AA402D"></path>
                <path d="M293,232.115607 L305,242 L294.659389,230 C294.10917,230.728324 293.567686,231.421965 293,232.115607 Z" id="Path" fill="#E8AE3A"></path>
                <path d="M282,214.27907 L268.014362,198 C265.127616,199.713586 263.205991,202.583843 261,205.128519 L277.79483,219 C279.087403,217.354957 280.569553,215.847001 282,214.27907 Z" id="Path" fill="#E8AE3A"></path>
                <path d="M255,183.694173 L246.824057,174.01382 C237.301975,173.636663 232,181.104364 232,181.104364 L244.965889,192 C248.087612,189.06656 250.870736,185.160893 255,183.694173 Z" id="Path" fill="#E8AE3A"></path>
                <path d="M248.941404,170.446031 C248.941404,170.446031 236.375874,165.540314 221.043928,188.267648 C205.711982,210.994981 212.494702,221.91041 212.494702,221.91041 L300.745049,250 C300.745049,250 303.244823,249.792482 306.144561,245.476115 C308.827651,241.42537 307.811076,239.383397 307.811076,239.383397 L248.941404,170.446031 Z" id="Path" stroke="#272525" stroke-width="3" stroke-linecap="round"></path>
                <path d="M258,182 C258,182 234.765554,193.489541 229,227" id="Path" stroke="#272525" stroke-width="3" stroke-linecap="round"></path>
                <path d="M270,197 C263.495172,201.634394 251.155862,212.865493 246,234" id="Path" stroke="#272525" stroke-width="3" stroke-linecap="round"></path>
                <path d="M284,211 C275.170822,218.525856 268.608336,228.196888 265,239" id="Path" stroke="#272525" stroke-width="3" stroke-linecap="round"></path>
                <path d="M297,227 C291.939571,232.570402 287.878043,239.001154 285,246" id="Path" stroke="#272525" stroke-width="3" stroke-linecap="round"></path>
                <path d="M225,221 L216,218" id="Path" stroke="#702B1F" stroke-width="3" stroke-linecap="round"></path>
                <path d="M264,234 L253,230" id="Path" stroke="#702B1F" stroke-width="3" stroke-linecap="round"></path>
                <path d="M299,247 L292,244" id="Path" stroke="#702B1F" stroke-width="3" stroke-linecap="round"></path>
                <text id="!" fill="#000000" font-family="Helvetica" font-size="64.98" font-weight="normal">
                    <tspan x="140" y="175">!</tspan>
                </text>
                <path d="M232.731354,17.1500376 L232.566137,17.1500376 C231.436351,10.8623977 225.782921,6.48457292 219.521757,7.0489103 C213.260593,7.61324767 208.452566,12.9339948 208.428006,19.3256795 C208.429376,20.2495264 208.529086,21.1705085 208.725395,22.0725323 C208.138589,21.9094728 207.532856,21.8275346 206.924536,21.8289276 C203.269273,21.8544173 200.253935,24.7462186 200.015108,28.4552801 C199.776281,32.1643416 202.395058,35.4312655 206.015845,35.9411989 L206.015845,36 L232.731354,36 C237.850286,36 242,31.7802922 242,26.5750188 C242,21.3697454 237.850286,17.1500376 232.731354,17.1500376 Z" id="Path" stroke="#9B9B9B" stroke-width="3" stroke-linecap="round"></path>
                <path d="M226,20.9577696 C228.456243,17.5363383 232.699061,16.1540066 236.546768,17.521579 C240.394474,18.8891514 242.99052,22.7021883 243,27" id="Path" stroke="#9B9B9B" stroke-width="3" stroke-linecap="round"></path>
                <path d="M213,18 C213.790078,15.2498936 216.027082,13.0128894 219,12" id="Path" stroke="#9B9B9B" stroke-width="3" stroke-linecap="round"></path>
                <path d="M51.5285208,37.9209752 C53.0302822,31.2920469 50.8861045,24.3539172 45.9291603,19.8025656 C40.9722161,15.251214 33.9840896,13.8042732 27.6801881,16.0239874 C21.3762866,18.2437016 16.7505753,23.7800782 15.6004872,30.4818229 L15.3187637,30.4818229 C10.2450962,30.3557686 5.50305228,33.0452246 2.92987955,37.5081938 C0.356706818,41.9711629 0.356706818,47.5064154 2.92987955,51.9693846 C5.50305228,56.4323538 10.2450962,59.1218098 15.3187637,58.9957555 L41.063321,58.9957555" id="Path" stroke="#9B9B9B" stroke-width="3" stroke-linecap="round"></path>
                <path d="M26,35.5442648 C22.3901164,30.752421 16.1462234,28.8150676 10.4843599,30.7300763 C4.82249638,32.6450851 1.00574581,37.985244 1,44" id="Path" stroke="#9B9B9B" stroke-width="3" stroke-linecap="round"></path>
                <path d="M48.0041969,45 C47.9039759,41.4640038 49.6048777,38.1496002 52.4433338,36.3498286 C55.28179,34.5500571 58.8081014,34.5500571 61.6465576,36.3498286 C64.4850138,38.1496002 66.1859155,41.4640038 66.0856945,45 L92,45" id="Path" stroke="#9B9B9B" stroke-width="3" stroke-linecap="round"></path>
                <path d="M48,58.5 L63,58.5" id="Path" stroke="#9B9B9B" stroke-width="3" stroke-linecap="round"></path>
                <path d="M98,44.5 L104,44.5" id="Path" stroke="#9B9B9B" stroke-width="3" stroke-linecap="round"></path>
                <path d="M239,111.995802 L270.657838,111.995802 C272.895582,112.079329 274.999358,110.911303 276.142582,108.950647 C277.285806,106.989992 277.285806,104.549993 276.142582,102.589338 C274.999358,100.628682 272.895582,99.4606565 270.657838,99.5441832 L270.534656,99.5441832 C269.964009,96.6835571 267.938004,94.3502363 265.219818,93.4231602 C262.501633,92.4960841 259.504223,93.1160976 257.356685,95.0496477 C255.209146,96.9831977 254.237741,99.936532 254.808389,102.797158" id="Path" stroke="#9B9B9B" stroke-width="3" stroke-linecap="round"></path>
                <path d="M266,101.371334 C267.590391,99.320135 270.337399,98.4923087 272.827641,99.3137863 C275.317882,100.135264 276.996574,102.423034 277,105" id="Path" stroke="#9B9B9B" stroke-width="3" stroke-linecap="round"></path>
                <path d="M298.582668,111 C305.440571,111 311,105.470705 311,98.6499735 C311,91.8292421 305.440571,86.2999469 298.582668,86.2999469 L298.321517,86.2999469 C297.264275,80.5286379 293.15333,75.7763241 287.573432,73.8750012 C281.993534,71.9736782 275.816143,73.2202918 271.422616,77.1342778 C267.029088,81.0482639 265.105598,87.0183423 266.393643,92.7430747" id="Path" stroke="#9B9B9B" stroke-width="3" stroke-linecap="round"></path>
                <path d="M289,91.7550031 C292.175001,87.6462249 297.672401,85.9839996 302.65712,87.6255576 C307.64184,89.2671157 311.000098,93.8456688 311,99" id="Path" stroke="#9B9B9B" stroke-width="3" stroke-linecap="round"></path>
                <path d="M271,89 C271,89 271.290456,79.8762447 279,77" id="Path" stroke="#9B9B9B" stroke-width="3" stroke-linecap="round"></path>
                <path d="M233,111.5 L229,111.5" id="Path" stroke="#9B9B9B" stroke-width="3" stroke-linecap="round"></path>
                <path d="M251.5,76 L251.5,82" id="Path" stroke="#9B9B9B" stroke-width="3" stroke-linecap="round"></path>
                <path d="M255,78.5 L249,78.5" id="Path" stroke="#9B9B9B" stroke-width="3" stroke-linecap="round"></path>
                <path d="M70.5,13 L70.5,19" id="Path" stroke="#9B9B9B" stroke-width="3" stroke-linecap="round"></path>
                <path d="M74,16.5 L68,16.5" id="Path" stroke="#9B9B9B" stroke-width="3" stroke-linecap="round"></path>
                <path d="M85.5,77 L85.5,83" id="Path" stroke="#9B9B9B" stroke-width="3" stroke-linecap="round"></path>
                <path d="M89,79.5 L83,79.5" id="Path" stroke="#9B9B9B" stroke-width="3" stroke-linecap="round"></path>
                <path d="M177.5,0 L177.5,6" id="Path" stroke="#9B9B9B" stroke-width="3" stroke-linecap="round"></path>
                <path d="M180,2.5 L174,2.5" id="Path" stroke="#9B9B9B" stroke-width="3" stroke-linecap="round"></path>
                <path d="M52,94.5 L36,94.5" id="Path" stroke="#9B9B9B" stroke-width="3" stroke-linecap="round"></path>
                <path d="M28,94.5 L25,94.5" id="Path" stroke="#9B9B9B" stroke-width="3" stroke-linecap="round"></path>
            </g>
        </g>
    </g>
</svg>